{"title":"DJ Doboy - Vocal Edition 25 192kbps StreamRip","uid":3987510,"size":109019971,"categoryP":"audio","categoryS":"music","magnet":"?xt=urn:btih:f1acb76a9398824a78a2f4c9d902e9f694155f58&amp;dn=DJ+Doboy+-+Vocal+Edition+25+192kbps+StreamRip&amp;tr=udp%3A%2F%2Ftracker.openbittorrent.com%3A80&amp;tr=udp%3A%2F%2Fopen.demonii.com%3A1337&amp;tr=udp%3A%2F%2Ftracker.coppersurfer.tk%3A6969&amp;tr=udp%3A%2F%2Fexodus.desync.com%3A6969","seeders":1,"leechers":0,"uploader":"CrouZ","files":1,"time":1200878198,"description":"CueSheet:\n\n\nPERFORMER &quot;DJ Doboy&quot;\nTITLE &quot;Vocal Edition Volume 25&quot;\nFILE &quot;..DJ Doboy - Vocal Edition Volume 25.mp3&quot; MP3\n\nTRACK 01 AUDIO\n\tPERFORMER &quot;Jose Amnesia feat. Jennifer Rene&quot;\n\tTITLE &quot;Wouldn&amp;#039;t Change a Thing&quot;\n\tINDEX 01 00:00:00\n\t\nTRACK 02 AUDIO\n\tPERFORMER &quot;Andrew Bennett feat. Kirsty Hawkshaw&quot;\n\tTITLE &quot;Heaven Sent (Vocal Remix)&quot;\n\tINDEX 01 06:57:00\n\t\nTRACK 03 AUDIO\n\tPERFORMER &quot;Markus Schulz &amp; Andy Moor&quot;\n\tTITLE &quot;Daydream&quot;\n\tINDEX 01 14:27:00\n\t\nTRACK 04 AUDIO\n\tPERFORMER &quot;Santiago Nino &amp; Damien Heck feat. Antonia Lucas&quot;\n\tTITLE &quot;Red Sky (Santiago Vocal Mix)&quot;\n\tINDEX 01 18:43:00\n\t\nTRACK 05 AUDIO\n\tPERFORMER &quot;Fonzarelli&quot;\n\tTITLE &quot;Spirit (wanna stay here forever) (vocal mix)&quot;\n\tINDEX 01 25:53:00\n\t\nTRACK 06 AUDIO\n\tPERFORMER &quot;?&quot;\n\tTITLE &quot;?&quot;\n\tINDEX 01 31:26:00\n\t\nTRACK 07 AUDIO\n\tPERFORMER &quot;Adam Nickey feat. Tiff Lacey&quot;\n\tTITLE &quot;Letting Go (? version)&quot;\n\tINDEX 01 37:03:00\n\t\nTRACK 08 AUDIO\n\tPERFORMER &quot;DT8 Project&quot;\n\tTITLE &quot;Hold Me Till The End (Aly &amp; Fila Remix)&quot;\n\tINDEX 01 43:17:00\n\t\nTRACK 09 AUDIO\n\tPERFORMER &quot;Pulser&quot;\n\tTITLE &quot;Things You Said (Andy Bagguley Remix)&quot;\n\tINDEX 01 48:46:00\n\t\nTRACK 10 AUDIO\n\tPERFORMER &quot;John O?Callaghan ft. Audrey Gallagher&quot;\n\tTITLE &quot;Big Sky (Agnelli &amp; Nelson Remix)&quot;\n\tINDEX 01 55:07:00\n\t\nTRACK 11 AUDIO\n\tPERFORMER &quot;?&quot;\n\tTITLE &quot;?&quot;\n\tINDEX 01 61:34:00\n\t\nTRACK 12 AUDIO\n\tPERFORMER &quot;?&quot;\n\tTITLE &quot;?&quot;\n\tINDEX 01 68:46:00\n\t\n","torrent":{"xt":"urn:btih:f1acb76a9398824a78a2f4c9d902e9f694155f58","amp;dn":"DJ+Doboy+-+Vocal+Edition+25+192kbps+StreamRip","amp;tr":["udp%3A%2F%2Ftracker.openbittorrent.com%3A80","udp%3A%2F%2Fopen.demonii.com%3A1337","udp%3A%2F%2Ftracker.coppersurfer.tk%3A6969","udp%3A%2F%2Fexodus.desync.com%3A6969"],"infoHash":"f1acb76a9398824a78a2f4c9d902e9f694155f58","infoHashBuffer":{"type":"Buffer","data":[241,172,183,106,147,152,130,74,120,162,244,201,217,2,233,246,148,21,95,88]},"announce":[],"urlList":[]}}